<?xml version="1.0" encoding="iso-8859-1"?>
<!-- Generator: Adobe Illustrator 19.0.0, SVG Export Plug-In . SVG Version: 6.00 Build 0)  -->
<svg version="1.1" id="Layer_1" xmlns="http://www.w3.org/2000/svg" xmlns:xlink="http://www.w3.org/1999/xlink" x="0px" y="0px"
	 viewBox="0 0 503.6 503.6" style="enable-background:new 0 0 503.6 503.6;" xml:space="preserve">
<path style="fill:#C3D7DD;" d="M246.6,379.6L246.6,379.6c-5.6,0-11.2-2.4-16.8-3.2c-2.4,0-4-3.2-3.2-5.6c0-2.4,2.4-4,4.8-4
	c4.8,0.8,10.4,1.6,15.2,1.6c2.4,0,4,3.2,4,5.6S248.2,379.6,246.6,379.6z M262.6,375.6c-2.4,0-4-1.6-4-4s1.6-4,4-4
	c4.8-0.8,10.4-1.6,15.2-2.4c2.4-0.8,4,0.8,4.8,3.2c0.8,2.4-0.8,4-3.2,4.8C273.8,374,268.2,375.6,262.6,375.6L262.6,375.6z
	 M215.4,370.8c-0.8,0-0.8,0-1.6,0c-5.6-1.6-10.4-4-15.2-6.4c-1.6-0.8-3.2-3.2-1.6-5.6c0.8-1.6,3.2-3.2,5.6-1.6
	c4.8,2.4,9.6,4,14.4,5.6c2.4,0.8,3.2,3.2,2.4,4.8C218.6,369.2,217,370.8,215.4,370.8z M293.8,368.4c-1.6,0-3.2-0.8-4-2.4
	c-0.8-2.4,0-4,2.4-4.8c4.8-1.6,9.6-4,14.4-6.4c1.6-0.8,4,0,5.6,1.6c0.8,1.6,0,4-1.6,5.6c-4.8,2.4-9.6,4.8-15.2,7.2
	C294.6,368.4,293.8,368.4,293.8,368.4z M186.6,357.2c-0.8,0-1.6,0-2.4-0.8c-4.8-3.2-8.8-6.4-12.8-9.6c-1.6-1.6-1.6-4-0.8-5.6
	c1.6-1.6,4-1.6,5.6-0.8c4,3.2,8,6.4,12,9.6c1.6,1.6,2.4,4,0.8,5.6C189,356.4,187.4,357.2,186.6,357.2z M321.8,353.2
	c-1.6,0-2.4-0.8-3.2-1.6c-1.6-1.6-0.8-4,0.8-5.6c4-3.2,8-6.4,12-9.6c1.6-1.6,4-1.6,5.6,0s1.6,4,0,5.6c-4,4-8,7.2-12.8,10.4
	C323.4,353.2,322.6,353.2,321.8,353.2z M161.8,335.6c-0.8,0-2.4-0.8-3.2-1.6c-4-4-7.2-8.8-10.4-12.8c-1.6-1.6-0.8-4,0.8-5.6
	s4-0.8,5.6,0.8c3.2,4,6.4,8.8,9.6,12c1.6,1.6,1.6,4,0,5.6C164.2,335.6,163.4,335.6,161.8,335.6z M344.2,331.6c-0.8,0-1.6,0-2.4-0.8
	c-1.6-1.6-2.4-4-0.8-5.6c3.2-4,6.4-8,8.8-12.8c0.8-1.6,3.2-2.4,5.6-1.6c1.6,0.8,2.4,3.2,1.6,5.6c-3.2,4.8-5.6,9.6-9.6,13.6
	C346.6,330.8,345.8,331.6,344.2,331.6z M144.2,309.2c-1.6,0-3.2-0.8-3.2-2.4c-2.4-4.8-4.8-10.4-6.4-15.2c-0.8-2.4,0.8-4,2.4-4.8
	c2.4-0.8,4,0.8,4.8,2.4c1.6,4.8,3.2,9.6,5.6,14.4c0.8,1.6,0,4-1.6,5.6C145.8,309.2,145,309.2,144.2,309.2z M361,303.6
	c-0.8,0-0.8,0-1.6,0c-2.4-0.8-3.2-3.2-2.4-5.6c2.4-4.8,4-9.6,4.8-14.4c0.8-2.4,2.4-3.2,4.8-2.4c2.4,0.8,3.2,2.4,2.4,4.8
	c-1.6,5.6-3.2,10.4-5.6,16C364.2,302.8,362.6,303.6,361,303.6z M134.6,278.8c-1.6,0-3.2-1.6-4-3.2c-0.8-5.6-1.6-11.2-1.6-16
	c0-2.4,1.6-4,4-4s4,1.6,4,4c0,4.8,0.8,10.4,1.6,15.2C138.6,276.4,137,278.8,134.6,278.8L134.6,278.8z M369,273.2L369,273.2
	c-2.4,0-4-2.4-4-4.8c0.8-4.8,0.8-10.4,0.8-15.2c0-4,0-8-0.8-11.2c0-2.4,1.6-4,3.2-4c2.4,0,4,1.6,4,3.2c0.8,4,0.8,8,0.8,12
	c0,5.6,0,11.2-0.8,16.8C373,271.6,371.4,273.2,369,273.2z M133,247.6C133,247.6,132.2,247.6,133,247.6c-2.4,0-4-2.4-4-4
	c0.8-5.6,1.6-11.2,2.4-16c0.8-2.4,2.4-3.2,4.8-3.2c2.4,0.8,3.2,2.4,3.2,4.8c-0.8,4.8-1.6,10.4-2.4,15.2
	C137,246,134.6,247.6,133,247.6z M367.4,229.2c-1.6,0-3.2-1.6-4-3.2c-0.8-4.8-2.4-9.6-4.8-14.4c-0.8-2.4,0-4,2.4-4.8s4,0,4.8,2.4
	c1.6,4.8,4,10.4,4.8,16c0.8,2.4-0.8,4-3.2,4.8C367.4,229.2,367.4,229.2,367.4,229.2z M139.4,216.4c-0.8,0-0.8,0-1.6,0
	c-2.4-0.8-3.2-3.2-2.4-4.8c1.6-4.8,4-10.4,6.4-15.2c0.8-1.6,3.2-2.4,5.6-1.6c1.6,0.8,2.4,3.2,1.6,5.6c-2.4,4.8-4.8,9.6-6.4,14.4
	C142.6,214.8,141,216.4,139.4,216.4z M355.4,199.6c-1.6,0-2.4-0.8-3.2-2.4c-2.4-4.8-5.6-8.8-8-12.8c-1.6-1.6-0.8-4,0.8-5.6
	c1.6-1.6,4-0.8,5.6,0.8c3.2,4.8,6.4,8.8,8.8,13.6c0.8,1.6,0,4-1.6,5.6C357,199.6,356.2,199.6,355.4,199.6z M154.6,187.6
	c-0.8,0-1.6,0-2.4-0.8c-1.6-1.6-2.4-4-0.8-5.6c3.2-4.8,6.4-8.8,10.4-12.8c1.6-1.6,4-1.6,5.6,0s1.6,4,0,5.6c-3.2,4-7.2,8-9.6,12
	C157,187.6,156.2,187.6,154.6,187.6z M337,174c-0.8,0-2.4-0.8-3.2-1.6c-3.2-4-7.2-7.2-11.2-10.4c-1.6-1.6-2.4-4-0.8-5.6
	s4-2.4,5.6-0.8c4,3.2,8.8,7.2,12,11.2c1.6,1.6,1.6,4,0,5.6C338.6,174,337.8,174,337,174z M176.2,164.4c-0.8,0-2.4-0.8-3.2-1.6
	c-1.6-1.6-0.8-4,0.8-5.6c4-3.2,8.8-6.4,13.6-9.6c1.6-0.8,4-0.8,5.6,1.6c0.8,1.6,0.8,4-1.6,5.6c-4,3.2-8,5.6-12,8.8
	C178.6,164.4,177.8,164.4,176.2,164.4z M311.4,154.8c-0.8,0-1.6,0-2.4-0.8c-4.8-2.4-8.8-4.8-13.6-7.2c-2.4-0.8-3.2-3.2-2.4-5.6
	c0.8-2.4,3.2-3.2,5.6-2.4c4.8,2.4,10.4,4.8,14.4,7.2c1.6,0.8,2.4,3.2,1.6,5.6C314.6,154,313,154.8,311.4,154.8z M203.4,148.4
	c-1.6,0-3.2-0.8-4-2.4c-0.8-2.4,0-4,2.4-5.6c4.8-2.4,10.4-4,15.2-5.6c2.4-0.8,4,0.8,4.8,2.4c0.8,2.4-0.8,4-2.4,4.8
	c-4.8,1.6-9.6,3.2-14.4,5.6C205,148.4,204.2,148.4,203.4,148.4z M281.8,142H281c-4.8-1.6-10.4-2.4-15.2-3.2c-2.4,0-4-2.4-3.2-4.8
	c0-2.4,2.4-4,4.8-3.2c5.6,0.8,11.2,1.6,16,3.2c2.4,0.8,3.2,2.4,3.2,4.8C285.8,141.2,284.2,142,281.8,142z M234.6,139.6
	c-1.6,0-4-1.6-4-3.2c0-2.4,1.6-3.2,3.2-4c5.6-0.8,11.2-0.8,16.8-0.8l0,0c2.4,0,4,0.8,4,3.2s-1.6,4-4,4
	C245,138.8,240.2,138.8,234.6,139.6L234.6,139.6z"/>
<g>
	<path style="fill:#50CE06;" d="M251.4,503.6c-1.6,0-2.4,0-4-0.8L37.8,380.4c-2.4-1.6-2.4-4-2.4-7.2V130c0-3.2,0-5.6,2.4-7.2
		L248.2,1.2c2.4-1.6,4.8-1.6,8,0l209.6,121.6c2.4,1.6,2.4,4,2.4,7.2v244c0,3.2,0,5.6-2.4,7.2L254.6,502
		C253.8,502.8,253,503.6,251.4,503.6z M51.4,369.2l200,117.6l200-117.6V134l-200-116.8L51.4,134V369.2z"/>
	<path style="fill:#50CE06;" d="M41.8,380.4c-2.4,0-0.8-1.6-2.4-3.2c-2.4-2.4-4-10.4-1.6-13.6l206.4-352c1.6-3.2,5.6-4.8,8.8-4
		s5.6,4,5.6,8v236c0,3.2-1.6,5.6-4,7.2l-208.8,120C45,379.6,43.4,380.4,41.8,380.4z M243.4,45.2L64.2,350l179.2-103.2V45.2z"/>
	<path style="fill:#50CE06;" d="M461,380.4c-1.6,0-2.4,0-4-0.8L247.4,258c-2.4-0.8-4-4-4-6.4v-236c0-4,2.4-6.4,5.6-8
		c3.2-0.8,7.2,0.8,8.8,4l205.6,349.6c1.6,3.2,2.4,13.6,0,16C461.8,378.8,462.6,380.4,461,380.4z M259.4,246.8L438.6,350L259.4,45.2
		V246.8z"/>
	<path style="fill:#50CE06;" d="M461,379.6L461,379.6H41.8c-4,0-0.8-2.4-1.6-6.4c-0.8-3.2-1.6-9.6,1.6-11.2l204.8-118.4
		c2.4-1.6,5.6-1.6,8,0L459.4,362c3.2,0.8,4.8,6.4,4.8,10.4S465.8,379.6,461,379.6z M71.4,363.6h359.2l-179.2-104L71.4,363.6z"/>
</g>
<g>
</g>
<g>
</g>
<g>
</g>
<g>
</g>
<g>
</g>
<g>
</g>
<g>
</g>
<g>
</g>
<g>
</g>
<g>
</g>
<g>
</g>
<g>
</g>
<g>
</g>
<g>
</g>
<g>
</g>
</svg>
