<?xml version="1.0" standalone="no"?>
<!DOCTYPE svg PUBLIC "-//W3C//DTD SVG 20010904//EN"
 "http://www.w3.org/TR/2001/REC-SVG-20010904/DTD/svg10.dtd">
<svg version="1.0" xmlns="http://www.w3.org/2000/svg"
 width="1280.000000pt" height="1280.000000pt" viewBox="0 0 1280.000000 1280.000000"
 preserveAspectRatio="xMidYMid meet">
<metadata>
Created by potrace 1.16, written by Peter Selinger 2001-2019
</metadata>
<g transform="translate(0.000000,1280.000000) scale(0.100000,-0.100000)"
fill="#000000" stroke="none">
<path d="M5715 11719 c-180 -16 -379 -95 -537 -214 -227 -170 -454 -478 -584
-791 -27 -65 -93 -207 -146 -314 -523 -1054 -1179 -1679 -1909 -1821 -86 -17
-153 -22 -269 -23 l-155 -1 -6 90 c-7 109 -28 176 -80 254 -72 107 -191 181
-324 201 -89 12 -1204 13 -1303 0 -178 -23 -330 -151 -383 -321 -18 -59 -19
-153 -19 -3499 0 -3346 1 -3440 19 -3499 51 -165 197 -292 369 -321 46 -7 266
-10 707 -8 629 3 641 4 697 25 199 75 318 246 318 455 0 53 3 68 14 68 42 0
263 -33 341 -52 183 -42 291 -88 535 -228 292 -167 493 -263 765 -365 513
-193 1140 -276 2080 -276 535 0 897 17 1060 52 343 72 628 234 807 458 151
189 227 376 318 778 41 182 73 292 104 351 9 18 49 67 87 110 269 294 479 687
572 1073 19 75 27 145 32 254 11 269 47 534 94 705 59 211 90 527 72 739 -21
248 -70 431 -169 631 -31 63 -58 118 -60 123 -2 4 340 8 760 8 420 1 1139 5
1598 8 823 7 836 7 893 29 141 52 275 138 411 264 195 179 314 393 362 647 23
121 15 374 -15 484 -52 197 -143 361 -276 505 -168 180 -355 287 -615 348 -71
17 -229 19 -2790 24 -2578 5 -2720 6 -2810 24 -52 10 -99 21 -103 26 -5 4 16
54 47 111 30 57 95 192 144 299 273 596 397 1033 409 1440 8 246 -17 404 -89
578 -156 375 -555 609 -973 571z m306 -529 c76 -39 167 -123 202 -188 14 -26
36 -81 49 -122 21 -68 23 -93 22 -270 0 -172 -3 -210 -27 -320 -92 -434 -296
-928 -638 -1544 l-121 -219 23 -19 c233 -181 470 -270 824 -308 56 -6 1072
-10 2710 -10 2165 -1 2633 -3 2695 -14 249 -45 443 -210 527 -448 38 -107 44
-273 14 -383 -61 -221 -224 -395 -442 -471 l-84 -29 -1956 0 -1956 0 -48 -30
c-162 -100 -149 -350 22 -422 34 -14 82 -22 162 -27 l114 -7 49 -40 c67 -57
165 -182 215 -276 92 -173 136 -364 136 -593 0 -212 -27 -375 -95 -580 -32
-95 -32 -95 -29 -285 5 -364 -56 -648 -203 -950 -97 -201 -192 -339 -359 -524
-131 -144 -184 -271 -267 -636 -92 -404 -160 -547 -321 -682 -111 -91 -339
-183 -509 -203 -265 -32 -1309 -39 -1625 -11 -828 74 -1222 192 -1870 564
-277 159 -460 233 -695 281 -131 27 -336 56 -396 56 l-34 0 0 2798 0 2797 163
1 c919 7 1745 601 2406 1729 96 164 289 543 325 638 60 161 176 364 282 496
222 276 498 370 735 251z"/>
</g>
</svg>
